<?xml version="1.0" encoding="UTF-8" standalone="no"?>
<!DOCTYPE svg PUBLIC "-//W3C//DTD SVG 1.1//EN"
 "http://www.w3.org/Graphics/SVG/1.1/DTD/svg11.dtd">
<!-- Generated by graphviz version 8.0.5 (20230430.1635)
 -->
<!-- Pages: 1 -->
<svg width="284pt" height="961pt"
 viewBox="0.00 0.00 283.62 961.00" xmlns="http://www.w3.org/2000/svg" xmlns:xlink="http://www.w3.org/1999/xlink">
<g id="graph0" class="graph" transform="scale(0.541256 0.541256) rotate(0) translate(4 1771.5)">
<polygon fill="white" stroke="none" points="-4,4 -4,-1771.5 520,-1771.5 520,4 -4,4"/>
<!-- 4998964352 -->
<g id="node1" class="node">
<title>4998964352</title>
<polygon fill="#caff70" stroke="black" points="438,-31.25 384,-31.25 384,0 438,0 438,-31.25"/>
<text text-anchor="middle" x="411" y="-5.75" font-family="monospace" font-size="10.00"> ()</text>
</g>
<!-- 4998294224 -->
<g id="node2" class="node">
<title>4998294224</title>
<polygon fill="lightgrey" stroke="black" points="455,-86.5 367,-86.5 367,-67.25 455,-67.25 455,-86.5"/>
<text text-anchor="middle" x="411" y="-73" font-family="monospace" font-size="10.00">NegBackward0</text>
</g>
<!-- 4998294224&#45;&gt;4998964352 -->
<g id="edge46" class="edge">
<title>4998294224&#45;&gt;4998964352</title>
<path fill="none" stroke="black" d="M411,-66.88C411,-60.39 411,-51.29 411,-42.62"/>
<polygon fill="black" stroke="black" points="414.5,-42.71 411,-32.71 407.5,-42.71 414.5,-42.71"/>
</g>
<!-- 4998294896 -->
<g id="node3" class="node">
<title>4998294896</title>
<polygon fill="lightgrey" stroke="black" points="458,-141.75 364,-141.75 364,-122.5 458,-122.5 458,-141.75"/>
<text text-anchor="middle" x="411" y="-128.25" font-family="monospace" font-size="10.00">MeanBackward0</text>
</g>
<!-- 4998294896&#45;&gt;4998294224 -->
<g id="edge1" class="edge">
<title>4998294896&#45;&gt;4998294224</title>
<path fill="none" stroke="black" d="M411,-122.33C411,-115.67 411,-106.24 411,-97.78"/>
<polygon fill="black" stroke="black" points="414.5,-97.86 411,-87.86 407.5,-97.86 414.5,-97.86"/>
</g>
<!-- 4998308928 -->
<g id="node4" class="node">
<title>4998308928</title>
<polygon fill="lightgrey" stroke="black" points="461,-197 361,-197 361,-177.75 461,-177.75 461,-197"/>
<text text-anchor="middle" x="411" y="-183.5" font-family="monospace" font-size="10.00">IndexBackward0</text>
</g>
<!-- 4998308928&#45;&gt;4998294896 -->
<g id="edge2" class="edge">
<title>4998308928&#45;&gt;4998294896</title>
<path fill="none" stroke="black" d="M411,-177.58C411,-170.92 411,-161.49 411,-153.03"/>
<polygon fill="black" stroke="black" points="414.5,-153.11 411,-143.11 407.5,-153.11 414.5,-153.11"/>
</g>
<!-- 4958898976 -->
<g id="node5" class="node">
<title>4958898976</title>
<polygon fill="lightgrey" stroke="black" points="455,-252.25 367,-252.25 367,-233 455,-233 455,-252.25"/>
<text text-anchor="middle" x="411" y="-238.75" font-family="monospace" font-size="10.00">LogBackward0</text>
</g>
<!-- 4958898976&#45;&gt;4998308928 -->
<g id="edge3" class="edge">
<title>4958898976&#45;&gt;4998308928</title>
<path fill="none" stroke="black" d="M411,-232.83C411,-226.17 411,-216.74 411,-208.28"/>
<polygon fill="black" stroke="black" points="414.5,-208.36 411,-198.36 407.5,-208.36 414.5,-208.36"/>
</g>
<!-- 4998294608 -->
<g id="node6" class="node">
<title>4998294608</title>
<polygon fill="lightgrey" stroke="black" points="455,-307.5 367,-307.5 367,-288.25 455,-288.25 455,-307.5"/>
<text text-anchor="middle" x="411" y="-294" font-family="monospace" font-size="10.00">MulBackward0</text>
</g>
<!-- 4998294608&#45;&gt;4958898976 -->
<g id="edge4" class="edge">
<title>4998294608&#45;&gt;4958898976</title>
<path fill="none" stroke="black" d="M411,-288.08C411,-281.42 411,-271.99 411,-263.53"/>
<polygon fill="black" stroke="black" points="414.5,-263.61 411,-253.61 407.5,-263.61 414.5,-263.61"/>
</g>
<!-- 4998294368 -->
<g id="node7" class="node">
<title>4998294368</title>
<polygon fill="lightgrey" stroke="black" points="455,-473.25 367,-473.25 367,-454 455,-454 455,-473.25"/>
<text text-anchor="middle" x="411" y="-459.75" font-family="monospace" font-size="10.00">ExpBackward0</text>
</g>
<!-- 4998294368&#45;&gt;4998294608 -->
<g id="edge5" class="edge">
<title>4998294368&#45;&gt;4998294608</title>
<path fill="none" stroke="black" d="M406.48,-453.68C402.29,-444.86 396.37,-430.88 394,-418 388.01,-385.44 388.01,-376.06 394,-343.5 395.61,-334.74 398.86,-325.48 402.09,-317.68"/>
<polygon fill="black" stroke="black" points="405.61,-319.38 406.48,-308.82 399.21,-316.54 405.61,-319.38"/>
</g>
<!-- 4998294752 -->
<g id="node43" class="node">
<title>4998294752</title>
<polygon fill="lightgrey" stroke="black" points="491,-418 403,-418 403,-398.75 491,-398.75 491,-418"/>
<text text-anchor="middle" x="447" y="-404.5" font-family="monospace" font-size="10.00">SumBackward1</text>
</g>
<!-- 4998294368&#45;&gt;4998294752 -->
<g id="edge45" class="edge">
<title>4998294368&#45;&gt;4998294752</title>
<path fill="none" stroke="black" d="M416.94,-453.83C421.81,-446.63 428.86,-436.21 434.91,-427.26"/>
<polygon fill="black" stroke="black" points="438.22,-429.6 440.93,-419.36 432.43,-425.68 438.22,-429.6"/>
</g>
<!-- 4998287360 -->
<g id="node8" class="node">
<title>4998287360</title>
<polygon fill="lightgrey" stroke="black" points="455,-528.5 367,-528.5 367,-509.25 455,-509.25 455,-528.5"/>
<text text-anchor="middle" x="411" y="-515" font-family="monospace" font-size="10.00">SubBackward0</text>
</g>
<!-- 4998287360&#45;&gt;4998294368 -->
<g id="edge6" class="edge">
<title>4998287360&#45;&gt;4998294368</title>
<path fill="none" stroke="black" d="M411,-509.08C411,-502.42 411,-492.99 411,-484.53"/>
<polygon fill="black" stroke="black" points="414.5,-484.61 411,-474.61 407.5,-484.61 414.5,-484.61"/>
</g>
<!-- 4998286928 -->
<g id="node9" class="node">
<title>4998286928</title>
<polygon fill="lightgrey" stroke="black" points="455,-639 367,-639 367,-619.75 455,-619.75 455,-639"/>
<text text-anchor="middle" x="411" y="-625.5" font-family="monospace" font-size="10.00">AddBackward0</text>
</g>
<!-- 4998286928&#45;&gt;4998287360 -->
<g id="edge7" class="edge">
<title>4998286928&#45;&gt;4998287360</title>
<path fill="none" stroke="black" d="M406.48,-619.43C402.29,-610.61 396.37,-596.63 394,-583.75 391.17,-568.39 396.16,-551.3 401.45,-538.67"/>
<polygon fill="black" stroke="black" points="404.96,-540.42 405.99,-529.87 398.61,-537.47 404.96,-540.42"/>
</g>
<!-- 4998296432 -->
<g id="node41" class="node">
<title>4998296432</title>
<polygon fill="lightgrey" stroke="black" points="491,-583.75 403,-583.75 403,-564.5 491,-564.5 491,-583.75"/>
<text text-anchor="middle" x="447" y="-570.25" font-family="monospace" font-size="10.00">MaxBackward0</text>
</g>
<!-- 4998286928&#45;&gt;4998296432 -->
<g id="edge42" class="edge">
<title>4998286928&#45;&gt;4998296432</title>
<path fill="none" stroke="black" d="M416.94,-619.58C421.81,-612.38 428.86,-601.96 434.91,-593.01"/>
<polygon fill="black" stroke="black" points="438.22,-595.35 440.93,-585.11 432.43,-591.43 438.22,-595.35"/>
</g>
<!-- 4998283376 -->
<g id="node10" class="node">
<title>4998283376</title>
<polygon fill="lightgrey" stroke="black" points="398,-694.25 316,-694.25 316,-675 398,-675 398,-694.25"/>
<text text-anchor="middle" x="357" y="-680.75" font-family="monospace" font-size="10.00">MmBackward0</text>
</g>
<!-- 4998283376&#45;&gt;4998286928 -->
<g id="edge8" class="edge">
<title>4998283376&#45;&gt;4998286928</title>
<path fill="none" stroke="black" d="M365.92,-674.83C373.61,-667.25 384.93,-656.09 394.3,-646.85"/>
<polygon fill="black" stroke="black" points="396.23,-649.87 400.89,-640.36 391.31,-644.89 396.23,-649.87"/>
</g>
<!-- 4998294416 -->
<g id="node11" class="node">
<title>4998294416</title>
<polygon fill="lightgrey" stroke="black" points="296,-755.12 202,-755.12 202,-735.88 296,-735.88 296,-755.12"/>
<text text-anchor="middle" x="249" y="-741.62" font-family="monospace" font-size="10.00">TanhBackward0</text>
</g>
<!-- 4998294416&#45;&gt;4998283376 -->
<g id="edge9" class="edge">
<title>4998294416&#45;&gt;4998283376</title>
<path fill="none" stroke="black" d="M265.4,-735.56C282.77,-726.09 310.43,-711.01 330.82,-699.9"/>
<polygon fill="black" stroke="black" points="332.34,-702.51 339.44,-694.65 328.99,-696.36 332.34,-702.51"/>
</g>
<!-- 4998296000 -->
<g id="node12" class="node">
<title>4998296000</title>
<polygon fill="lightgrey" stroke="black" points="293,-821.62 205,-821.62 205,-802.38 293,-802.38 293,-821.62"/>
<text text-anchor="middle" x="249" y="-808.12" font-family="monospace" font-size="10.00">AddBackward0</text>
</g>
<!-- 4998296000&#45;&gt;4998294416 -->
<g id="edge10" class="edge">
<title>4998296000&#45;&gt;4998294416</title>
<path fill="none" stroke="black" d="M249,-802.03C249,-792.79 249,-778.08 249,-766.13"/>
<polygon fill="black" stroke="black" points="252.5,-766.39 249,-756.39 245.5,-766.39 252.5,-766.39"/>
</g>
<!-- 4998291488 -->
<g id="node13" class="node">
<title>4998291488</title>
<polygon fill="lightgrey" stroke="black" points="237,-882.5 149,-882.5 149,-863.25 237,-863.25 237,-882.5"/>
<text text-anchor="middle" x="193" y="-869" font-family="monospace" font-size="10.00">MulBackward0</text>
</g>
<!-- 4998291488&#45;&gt;4998296000 -->
<g id="edge11" class="edge">
<title>4998291488&#45;&gt;4998296000</title>
<path fill="none" stroke="black" d="M201.51,-862.93C209.81,-854.2 222.66,-840.69 232.9,-829.93"/>
<polygon fill="black" stroke="black" points="235.06,-832.68 239.41,-823.03 229.99,-827.86 235.06,-832.68"/>
</g>
<!-- 4998290960 -->
<g id="node14" class="node">
<title>4998290960</title>
<polygon fill="lightgrey" stroke="black" points="140,-943.38 40,-943.38 40,-924.12 140,-924.12 140,-943.38"/>
<text text-anchor="middle" x="90" y="-929.88" font-family="monospace" font-size="10.00">AccumulateGrad</text>
</g>
<!-- 4998290960&#45;&gt;4998291488 -->
<g id="edge12" class="edge">
<title>4998290960&#45;&gt;4998291488</title>
<path fill="none" stroke="black" d="M105.64,-923.81C122.13,-914.38 148.35,-899.4 167.76,-888.3"/>
<polygon fill="black" stroke="black" points="169.26,-890.9 176.21,-882.9 165.79,-884.82 169.26,-890.9"/>
</g>
<!-- 4957152544 -->
<g id="node15" class="node">
<title>4957152544</title>
<polygon fill="lightblue" stroke="black" points="122,-1015.5 58,-1015.5 58,-985 122,-985 122,-1015.5"/>
<text text-anchor="middle" x="90" y="-1002" font-family="monospace" font-size="10.00">bngain</text>
<text text-anchor="middle" x="90" y="-990.75" font-family="monospace" font-size="10.00"> (1, 64)</text>
</g>
<!-- 4957152544&#45;&gt;4998290960 -->
<g id="edge13" class="edge">
<title>4957152544&#45;&gt;4998290960</title>
<path fill="none" stroke="black" d="M90,-984.61C90,-975.63 90,-964.01 90,-954.26"/>
<polygon fill="black" stroke="black" points="93.5,-954.57 90,-944.57 86.5,-954.57 93.5,-954.57"/>
</g>
<!-- 4998296240 -->
<g id="node16" class="node">
<title>4998296240</title>
<polygon fill="lightgrey" stroke="black" points="246,-943.38 158,-943.38 158,-924.12 246,-924.12 246,-943.38"/>
<text text-anchor="middle" x="202" y="-929.88" font-family="monospace" font-size="10.00">MulBackward0</text>
</g>
<!-- 4998296240&#45;&gt;4998291488 -->
<g id="edge14" class="edge">
<title>4998296240&#45;&gt;4998291488</title>
<path fill="none" stroke="black" d="M200.63,-923.81C199.42,-915.85 197.6,-903.94 196.04,-893.74"/>
<polygon fill="black" stroke="black" points="199.35,-893.26 194.38,-883.9 192.43,-894.32 199.35,-893.26"/>
</g>
<!-- 4998291440 -->
<g id="node17" class="node">
<title>4998291440</title>
<polygon fill="lightgrey" stroke="black" points="256,-1291.75 168,-1291.75 168,-1272.5 256,-1272.5 256,-1291.75"/>
<text text-anchor="middle" x="212" y="-1278.25" font-family="monospace" font-size="10.00">SubBackward0</text>
</g>
<!-- 4998291440&#45;&gt;4998296240 -->
<g id="edge15" class="edge">
<title>4998291440&#45;&gt;4998296240</title>
<path fill="none" stroke="black" d="M206.84,-1272.17C196.89,-1254.02 176,-1211.33 176,-1172.62 176,-1172.62 176,-1172.62 176,-1060.12 176,-1021.92 187.72,-978.5 195.42,-954.09"/>
<polygon fill="black" stroke="black" points="199.03,-955.33 198.81,-944.74 192.37,-953.16 199.03,-955.33"/>
</g>
<!-- 4998289616 -->
<g id="node34" class="node">
<title>4998289616</title>
<polygon fill="lightgrey" stroke="black" points="292,-1236.5 204,-1236.5 204,-1217.25 292,-1217.25 292,-1236.5"/>
<text text-anchor="middle" x="248" y="-1223" font-family="monospace" font-size="10.00">PowBackward0</text>
</g>
<!-- 4998291440&#45;&gt;4998289616 -->
<g id="edge34" class="edge">
<title>4998291440&#45;&gt;4998289616</title>
<path fill="none" stroke="black" d="M217.94,-1272.33C222.81,-1265.13 229.86,-1254.71 235.91,-1245.76"/>
<polygon fill="black" stroke="black" points="239.22,-1248.1 241.93,-1237.86 233.43,-1244.18 239.22,-1248.1"/>
</g>
<!-- 4998290576 -->
<g id="node18" class="node">
<title>4998290576</title>
<polygon fill="lightgrey" stroke="black" points="256,-1457.5 168,-1457.5 168,-1438.25 256,-1438.25 256,-1457.5"/>
<text text-anchor="middle" x="212" y="-1444" font-family="monospace" font-size="10.00">AddBackward0</text>
</g>
<!-- 4998290576&#45;&gt;4998291440 -->
<g id="edge16" class="edge">
<title>4998290576&#45;&gt;4998291440</title>
<path fill="none" stroke="black" d="M207.48,-1437.93C203.29,-1429.11 197.37,-1415.13 195,-1402.25 189.01,-1369.69 189.01,-1360.31 195,-1327.75 196.61,-1318.99 199.86,-1309.73 203.09,-1301.93"/>
<polygon fill="black" stroke="black" points="206.61,-1303.63 207.48,-1293.07 200.21,-1300.79 206.61,-1303.63"/>
</g>
<!-- 4998284480 -->
<g id="node29" class="node">
<title>4998284480</title>
<polygon fill="lightgrey" stroke="black" points="292,-1402.25 204,-1402.25 204,-1383 292,-1383 292,-1402.25"/>
<text text-anchor="middle" x="248" y="-1388.75" font-family="monospace" font-size="10.00">SumBackward1</text>
</g>
<!-- 4998290576&#45;&gt;4998284480 -->
<g id="edge28" class="edge">
<title>4998290576&#45;&gt;4998284480</title>
<path fill="none" stroke="black" d="M217.94,-1438.08C222.81,-1430.88 229.86,-1420.46 235.91,-1411.51"/>
<polygon fill="black" stroke="black" points="239.22,-1413.85 241.93,-1403.61 233.43,-1409.93 239.22,-1413.85"/>
</g>
<!-- 4998290528 -->
<g id="node19" class="node">
<title>4998290528</title>
<polygon fill="lightgrey" stroke="black" points="199,-1512.75 117,-1512.75 117,-1493.5 199,-1493.5 199,-1512.75"/>
<text text-anchor="middle" x="158" y="-1499.25" font-family="monospace" font-size="10.00">MmBackward0</text>
</g>
<!-- 4998290528&#45;&gt;4998290576 -->
<g id="edge17" class="edge">
<title>4998290528&#45;&gt;4998290576</title>
<path fill="none" stroke="black" d="M166.92,-1493.33C174.61,-1485.75 185.93,-1474.59 195.3,-1465.35"/>
<polygon fill="black" stroke="black" points="197.23,-1468.37 201.89,-1458.86 192.31,-1463.39 197.23,-1468.37"/>
</g>
<!-- 4998290048 -->
<g id="node20" class="node">
<title>4998290048</title>
<polygon fill="lightgrey" stroke="black" points="97,-1573.62 3,-1573.62 3,-1554.38 97,-1554.38 97,-1573.62"/>
<text text-anchor="middle" x="50" y="-1560.12" font-family="monospace" font-size="10.00">ViewBackward0</text>
</g>
<!-- 4998290048&#45;&gt;4998290528 -->
<g id="edge18" class="edge">
<title>4998290048&#45;&gt;4998290528</title>
<path fill="none" stroke="black" d="M66.4,-1554.06C83.77,-1544.59 111.43,-1529.51 131.82,-1518.4"/>
<polygon fill="black" stroke="black" points="133.34,-1521.01 140.44,-1513.15 129.99,-1514.86 133.34,-1521.01"/>
</g>
<!-- 4998289808 -->
<g id="node21" class="node">
<title>4998289808</title>
<polygon fill="lightgrey" stroke="black" points="100,-1640.12 0,-1640.12 0,-1620.88 100,-1620.88 100,-1640.12"/>
<text text-anchor="middle" x="50" y="-1626.62" font-family="monospace" font-size="10.00">IndexBackward0</text>
</g>
<!-- 4998289808&#45;&gt;4998290048 -->
<g id="edge19" class="edge">
<title>4998289808&#45;&gt;4998290048</title>
<path fill="none" stroke="black" d="M50,-1620.53C50,-1611.29 50,-1596.58 50,-1584.63"/>
<polygon fill="black" stroke="black" points="53.5,-1584.89 50,-1574.89 46.5,-1584.89 53.5,-1584.89"/>
</g>
<!-- 4998287744 -->
<g id="node22" class="node">
<title>4998287744</title>
<polygon fill="lightgrey" stroke="black" points="100,-1701 0,-1701 0,-1681.75 100,-1681.75 100,-1701"/>
<text text-anchor="middle" x="50" y="-1687.5" font-family="monospace" font-size="10.00">AccumulateGrad</text>
</g>
<!-- 4998287744&#45;&gt;4998289808 -->
<g id="edge20" class="edge">
<title>4998287744&#45;&gt;4998289808</title>
<path fill="none" stroke="black" d="M50,-1681.43C50,-1673.48 50,-1661.56 50,-1651.37"/>
<polygon fill="black" stroke="black" points="53.5,-1651.53 50,-1641.53 46.5,-1651.53 53.5,-1651.53"/>
</g>
<!-- 4998573536 -->
<g id="node23" class="node">
<title>4998573536</title>
<polygon fill="lightblue" stroke="black" points="85,-1767.5 15,-1767.5 15,-1737 85,-1737 85,-1767.5"/>
<text text-anchor="middle" x="50" y="-1754" font-family="monospace" font-size="10.00">C</text>
<text text-anchor="middle" x="50" y="-1742.75" font-family="monospace" font-size="10.00"> (27, 10)</text>
</g>
<!-- 4998573536&#45;&gt;4998287744 -->
<g id="edge21" class="edge">
<title>4998573536&#45;&gt;4998287744</title>
<path fill="none" stroke="black" d="M50,-1736.7C50,-1729.37 50,-1720.37 50,-1712.41"/>
<polygon fill="black" stroke="black" points="53.5,-1712.45 50,-1702.45 46.5,-1712.45 53.5,-1712.45"/>
</g>
<!-- 4998289328 -->
<g id="node24" class="node">
<title>4998289328</title>
<polygon fill="lightgrey" stroke="black" points="215,-1573.62 115,-1573.62 115,-1554.38 215,-1554.38 215,-1573.62"/>
<text text-anchor="middle" x="165" y="-1560.12" font-family="monospace" font-size="10.00">AccumulateGrad</text>
</g>
<!-- 4998289328&#45;&gt;4998290528 -->
<g id="edge22" class="edge">
<title>4998289328&#45;&gt;4998290528</title>
<path fill="none" stroke="black" d="M163.94,-1554.06C162.99,-1546.1 161.57,-1534.19 160.36,-1523.99"/>
<polygon fill="black" stroke="black" points="163.73,-1523.67 159.07,-1514.15 156.78,-1524.49 163.73,-1523.67"/>
</g>
<!-- 4458180784 -->
<g id="node25" class="node">
<title>4458180784</title>
<polygon fill="lightblue" stroke="black" points="200,-1645.75 130,-1645.75 130,-1615.25 200,-1615.25 200,-1645.75"/>
<text text-anchor="middle" x="165" y="-1632.25" font-family="monospace" font-size="10.00">W1</text>
<text text-anchor="middle" x="165" y="-1621" font-family="monospace" font-size="10.00"> (30, 64)</text>
</g>
<!-- 4458180784&#45;&gt;4998289328 -->
<g id="edge23" class="edge">
<title>4458180784&#45;&gt;4998289328</title>
<path fill="none" stroke="black" d="M165,-1614.86C165,-1605.88 165,-1594.26 165,-1584.51"/>
<polygon fill="black" stroke="black" points="168.5,-1584.82 165,-1574.82 161.5,-1584.82 168.5,-1584.82"/>
</g>
<!-- 4998290336 -->
<g id="node26" class="node">
<title>4998290336</title>
<polygon fill="lightgrey" stroke="black" points="317,-1512.75 217,-1512.75 217,-1493.5 317,-1493.5 317,-1512.75"/>
<text text-anchor="middle" x="267" y="-1499.25" font-family="monospace" font-size="10.00">AccumulateGrad</text>
</g>
<!-- 4998290336&#45;&gt;4998290576 -->
<g id="edge24" class="edge">
<title>4998290336&#45;&gt;4998290576</title>
<path fill="none" stroke="black" d="M257.92,-1493.33C250.08,-1485.75 238.56,-1474.59 229.01,-1465.35"/>
<polygon fill="black" stroke="black" points="231.9,-1463.3 222.28,-1458.86 227.03,-1468.33 231.9,-1463.3"/>
</g>
<!-- 4998574816 -->
<g id="node27" class="node">
<title>4998574816</title>
<polygon fill="lightblue" stroke="black" points="294,-1579.25 240,-1579.25 240,-1548.75 294,-1548.75 294,-1579.25"/>
<text text-anchor="middle" x="267" y="-1565.75" font-family="monospace" font-size="10.00">b1</text>
<text text-anchor="middle" x="267" y="-1554.5" font-family="monospace" font-size="10.00"> (64)</text>
</g>
<!-- 4998574816&#45;&gt;4998290336 -->
<g id="edge25" class="edge">
<title>4998574816&#45;&gt;4998290336</title>
<path fill="none" stroke="black" d="M267,-1548.45C267,-1541.12 267,-1532.12 267,-1524.16"/>
<polygon fill="black" stroke="black" points="270.5,-1524.2 267,-1514.2 263.5,-1524.2 270.5,-1524.2"/>
</g>
<!-- 4998290768 -->
<g id="node28" class="node">
<title>4998290768</title>
<polygon fill="lightgrey" stroke="black" points="292,-1347 204,-1347 204,-1327.75 292,-1327.75 292,-1347"/>
<text text-anchor="middle" x="248" y="-1333.5" font-family="monospace" font-size="10.00">MulBackward0</text>
</g>
<!-- 4998290768&#45;&gt;4998291440 -->
<g id="edge26" class="edge">
<title>4998290768&#45;&gt;4998291440</title>
<path fill="none" stroke="black" d="M242.06,-1327.58C237.19,-1320.38 230.14,-1309.96 224.09,-1301.01"/>
<polygon fill="black" stroke="black" points="226.57,-1299.43 218.07,-1293.11 220.78,-1303.35 226.57,-1299.43"/>
</g>
<!-- 4998284480&#45;&gt;4998290768 -->
<g id="edge27" class="edge">
<title>4998284480&#45;&gt;4998290768</title>
<path fill="none" stroke="black" d="M248,-1382.83C248,-1376.17 248,-1366.74 248,-1358.28"/>
<polygon fill="black" stroke="black" points="251.5,-1358.36 248,-1348.36 244.5,-1358.36 251.5,-1358.36"/>
</g>
<!-- 4998295664 -->
<g id="node30" class="node">
<title>4998295664</title>
<polygon fill="lightgrey" stroke="black" points="292,-1009.88 204,-1009.88 204,-990.62 292,-990.62 292,-1009.88"/>
<text text-anchor="middle" x="248" y="-996.38" font-family="monospace" font-size="10.00">PowBackward0</text>
</g>
<!-- 4998295664&#45;&gt;4998296240 -->
<g id="edge29" class="edge">
<title>4998295664&#45;&gt;4998296240</title>
<path fill="none" stroke="black" d="M241.6,-990.28C234.67,-980.56 223.42,-964.79 214.68,-952.53"/>
<polygon fill="black" stroke="black" points="217,-950.75 208.34,-944.64 211.3,-954.82 217,-950.75"/>
</g>
<!-- 4998289856 -->
<g id="node31" class="node">
<title>4998289856</title>
<polygon fill="lightgrey" stroke="black" points="292,-1070.75 204,-1070.75 204,-1051.5 292,-1051.5 292,-1070.75"/>
<text text-anchor="middle" x="248" y="-1057.25" font-family="monospace" font-size="10.00">AddBackward0</text>
</g>
<!-- 4998289856&#45;&gt;4998295664 -->
<g id="edge30" class="edge">
<title>4998289856&#45;&gt;4998295664</title>
<path fill="none" stroke="black" d="M248,-1051.18C248,-1043.23 248,-1031.31 248,-1021.12"/>
<polygon fill="black" stroke="black" points="251.5,-1021.28 248,-1011.28 244.5,-1021.28 251.5,-1021.28"/>
</g>
<!-- 4998290816 -->
<g id="node32" class="node">
<title>4998290816</title>
<polygon fill="lightgrey" stroke="black" points="292,-1126 204,-1126 204,-1106.75 292,-1106.75 292,-1126"/>
<text text-anchor="middle" x="248" y="-1112.5" font-family="monospace" font-size="10.00">MulBackward0</text>
</g>
<!-- 4998290816&#45;&gt;4998289856 -->
<g id="edge31" class="edge">
<title>4998290816&#45;&gt;4998289856</title>
<path fill="none" stroke="black" d="M248,-1106.58C248,-1099.92 248,-1090.49 248,-1082.03"/>
<polygon fill="black" stroke="black" points="251.5,-1082.11 248,-1072.11 244.5,-1082.11 251.5,-1082.11"/>
</g>
<!-- 4998289904 -->
<g id="node33" class="node">
<title>4998289904</title>
<polygon fill="lightgrey" stroke="black" points="292,-1181.25 204,-1181.25 204,-1162 292,-1162 292,-1181.25"/>
<text text-anchor="middle" x="248" y="-1167.75" font-family="monospace" font-size="10.00">SumBackward1</text>
</g>
<!-- 4998289904&#45;&gt;4998290816 -->
<g id="edge32" class="edge">
<title>4998289904&#45;&gt;4998290816</title>
<path fill="none" stroke="black" d="M248,-1161.83C248,-1155.17 248,-1145.74 248,-1137.28"/>
<polygon fill="black" stroke="black" points="251.5,-1137.36 248,-1127.36 244.5,-1137.36 251.5,-1137.36"/>
</g>
<!-- 4998289616&#45;&gt;4998289904 -->
<g id="edge33" class="edge">
<title>4998289616&#45;&gt;4998289904</title>
<path fill="none" stroke="black" d="M248,-1217.08C248,-1210.42 248,-1200.99 248,-1192.53"/>
<polygon fill="black" stroke="black" points="251.5,-1192.61 248,-1182.61 244.5,-1192.61 251.5,-1192.61"/>
</g>
<!-- 4998296384 -->
<g id="node35" class="node">
<title>4998296384</title>
<polygon fill="lightgrey" stroke="black" points="355,-882.5 255,-882.5 255,-863.25 355,-863.25 355,-882.5"/>
<text text-anchor="middle" x="305" y="-869" font-family="monospace" font-size="10.00">AccumulateGrad</text>
</g>
<!-- 4998296384&#45;&gt;4998296000 -->
<g id="edge35" class="edge">
<title>4998296384&#45;&gt;4998296000</title>
<path fill="none" stroke="black" d="M296.49,-862.93C288.19,-854.2 275.34,-840.69 265.1,-829.93"/>
<polygon fill="black" stroke="black" points="268.01,-827.86 258.59,-823.03 262.94,-832.68 268.01,-827.86"/>
</g>
<!-- 4998960272 -->
<g id="node36" class="node">
<title>4998960272</title>
<polygon fill="lightblue" stroke="black" points="337,-949 273,-949 273,-918.5 337,-918.5 337,-949"/>
<text text-anchor="middle" x="305" y="-935.5" font-family="monospace" font-size="10.00">bnbias</text>
<text text-anchor="middle" x="305" y="-924.25" font-family="monospace" font-size="10.00"> (1, 64)</text>
</g>
<!-- 4998960272&#45;&gt;4998296384 -->
<g id="edge36" class="edge">
<title>4998960272&#45;&gt;4998296384</title>
<path fill="none" stroke="black" d="M305,-918.2C305,-910.87 305,-901.87 305,-893.91"/>
<polygon fill="black" stroke="black" points="308.5,-893.95 305,-883.95 301.5,-893.95 308.5,-893.95"/>
</g>
<!-- 4998295760 -->
<g id="node37" class="node">
<title>4998295760</title>
<polygon fill="lightgrey" stroke="black" points="414,-755.12 314,-755.12 314,-735.88 414,-735.88 414,-755.12"/>
<text text-anchor="middle" x="364" y="-741.62" font-family="monospace" font-size="10.00">AccumulateGrad</text>
</g>
<!-- 4998295760&#45;&gt;4998283376 -->
<g id="edge37" class="edge">
<title>4998295760&#45;&gt;4998283376</title>
<path fill="none" stroke="black" d="M362.94,-735.56C361.99,-727.6 360.57,-715.69 359.36,-705.49"/>
<polygon fill="black" stroke="black" points="362.73,-705.17 358.07,-695.65 355.78,-705.99 362.73,-705.17"/>
</g>
<!-- 4944238752 -->
<g id="node38" class="node">
<title>4944238752</title>
<polygon fill="lightblue" stroke="black" points="399,-827.25 329,-827.25 329,-796.75 399,-796.75 399,-827.25"/>
<text text-anchor="middle" x="364" y="-813.75" font-family="monospace" font-size="10.00">W2</text>
<text text-anchor="middle" x="364" y="-802.5" font-family="monospace" font-size="10.00"> (64, 27)</text>
</g>
<!-- 4944238752&#45;&gt;4998295760 -->
<g id="edge38" class="edge">
<title>4944238752&#45;&gt;4998295760</title>
<path fill="none" stroke="black" d="M364,-796.36C364,-787.38 364,-775.76 364,-766.01"/>
<polygon fill="black" stroke="black" points="367.5,-766.32 364,-756.32 360.5,-766.32 367.5,-766.32"/>
</g>
<!-- 4998291152 -->
<g id="node39" class="node">
<title>4998291152</title>
<polygon fill="lightgrey" stroke="black" points="516,-694.25 416,-694.25 416,-675 516,-675 516,-694.25"/>
<text text-anchor="middle" x="466" y="-680.75" font-family="monospace" font-size="10.00">AccumulateGrad</text>
</g>
<!-- 4998291152&#45;&gt;4998286928 -->
<g id="edge39" class="edge">
<title>4998291152&#45;&gt;4998286928</title>
<path fill="none" stroke="black" d="M456.92,-674.83C449.08,-667.25 437.56,-656.09 428.01,-646.85"/>
<polygon fill="black" stroke="black" points="430.9,-644.8 421.28,-640.36 426.03,-649.83 430.9,-644.8"/>
</g>
<!-- 4998960192 -->
<g id="node40" class="node">
<title>4998960192</title>
<polygon fill="lightblue" stroke="black" points="493,-760.75 439,-760.75 439,-730.25 493,-730.25 493,-760.75"/>
<text text-anchor="middle" x="466" y="-747.25" font-family="monospace" font-size="10.00">b2</text>
<text text-anchor="middle" x="466" y="-736" font-family="monospace" font-size="10.00"> (27)</text>
</g>
<!-- 4998960192&#45;&gt;4998291152 -->
<g id="edge40" class="edge">
<title>4998960192&#45;&gt;4998291152</title>
<path fill="none" stroke="black" d="M466,-729.95C466,-722.62 466,-713.62 466,-705.66"/>
<polygon fill="black" stroke="black" points="469.5,-705.7 466,-695.7 462.5,-705.7 469.5,-705.7"/>
</g>
<!-- 4998296432&#45;&gt;4998287360 -->
<g id="edge41" class="edge">
<title>4998296432&#45;&gt;4998287360</title>
<path fill="none" stroke="black" d="M441.06,-564.33C436.19,-557.13 429.14,-546.71 423.09,-537.76"/>
<polygon fill="black" stroke="black" points="425.57,-536.18 417.07,-529.86 419.78,-540.1 425.57,-536.18"/>
</g>
<!-- 4998283568 -->
<g id="node42" class="node">
<title>4998283568</title>
<polygon fill="lightgrey" stroke="black" points="491,-362.75 403,-362.75 403,-343.5 491,-343.5 491,-362.75"/>
<text text-anchor="middle" x="447" y="-349.25" font-family="monospace" font-size="10.00">PowBackward0</text>
</g>
<!-- 4998283568&#45;&gt;4998294608 -->
<g id="edge43" class="edge">
<title>4998283568&#45;&gt;4998294608</title>
<path fill="none" stroke="black" d="M441.06,-343.33C436.19,-336.13 429.14,-325.71 423.09,-316.76"/>
<polygon fill="black" stroke="black" points="425.57,-315.18 417.07,-308.86 419.78,-319.1 425.57,-315.18"/>
</g>
<!-- 4998294752&#45;&gt;4998283568 -->
<g id="edge44" class="edge">
<title>4998294752&#45;&gt;4998283568</title>
<path fill="none" stroke="black" d="M447,-398.58C447,-391.92 447,-382.49 447,-374.03"/>
<polygon fill="black" stroke="black" points="450.5,-374.11 447,-364.11 443.5,-374.11 450.5,-374.11"/>
</g>
</g>
</svg>
